<?xml version="1.0" encoding="utf-8"?>
<!-- Generator: Adobe Illustrator 24.0.1, SVG Export Plug-In . SVG Version: 6.00 Build 0)  -->
<svg version="1.1" id="Layer_1" xmlns="http://www.w3.org/2000/svg" xmlns:xlink="http://www.w3.org/1999/xlink" x="0px" y="0px"
	 viewBox="0 0 847 1058.8" style="enable-background:new 0 0 847 1058.8;" xml:space="preserve">
<style type="text/css">
	.st0{fill-rule:evenodd;clip-rule:evenodd;fill:#FFFFFF;}
</style>
<g>
	<path class="st0" d="M291,476h88V338h89v138h88L423,610L291,476z M193,677h423c88,0,159-80,159-159c0-78-44-128-106-150
		c3-12,5-25,5-39c0-88-71-159-159-159c-60,0-112,32-139,81c-15-6-31-9-48-9c-75,0-136,61-136,137c0,9,0,17,2,26
		c-69,7-123,63-123,136S117,677,193,677z"/>
</g>
</svg>
